{"title":"Desi Kattey (2014) - 1CD - DVDSCR-Rip - Hindi - XviD - MP3 - Maf","uid":11107840,"size":736913390,"categoryP":"video","categoryS":"movies","magnet":"?xt=urn:btih:35ebb0c1ffb0bc65889c8e1fb41d6fb3b702ecc7&amp;dn=Desi+Kattey+%282014%29+-+1CD+-+DVDSCR-Rip+-+Hindi+-+XviD+-+MP3+-+Maf&amp;tr=udp%3A%2F%2Ftracker.openbittorrent.com%3A80&amp;tr=udp%3A%2F%2Fopen.demonii.com%3A1337&amp;tr=udp%3A%2F%2Ftracker.coppersurfer.tk%3A6969&amp;tr=udp%3A%2F%2Fexodus.desync.com%3A6969","seeders":1,"leechers":1,"uploader":"inovai","files":3,"time":1411750490,"description":"Desi Kattey (2014) - 1CD - DVDSCR-Rip - Hindi - XviD - MP3 - Mafiaking - TeamTNT ExClusive\n\nCover:\n &lt;a href=&quot;\nhttp://forum.primetimeshow.in/viewtopic.php?f=7&amp;t=733&quot; rel=&quot;nofollow&quot; target=&quot;_NEW&quot;&gt;\nhttp://forum.primetimeshow.in/viewtopic.php?f=7&amp;t=733&lt;/a&gt;\n\nScreenshots:\n &lt;a href=&quot;\nhttp://m.primetimeshow.in/share-DBC2_54257D1C.html&quot; rel=&quot;nofollow&quot; target=&quot;_NEW&quot;&gt;\nhttp://m.primetimeshow.in/share-DBC2_54257D1C.html&lt;/a&gt;\n &lt;a href=&quot;\nhttp://m.primetimeshow.in/share-064F_54257D1C.html&quot; rel=&quot;nofollow&quot; target=&quot;_NEW&quot;&gt;\nhttp://m.primetimeshow.in/share-064F_54257D1C.html&lt;/a&gt;\n &lt;a href=&quot;\nhttp://m.primetimeshow.in/share-2874_54257D1C.html&quot; rel=&quot;nofollow&quot; target=&quot;_NEW&quot;&gt;\nhttp://m.primetimeshow.in/share-2874_54257D1C.html&lt;/a&gt;\n &lt;a href=&quot;\nhttp://m.primetimeshow.in/share-725F_54257D1C.html&quot; rel=&quot;nofollow&quot; target=&quot;_NEW&quot;&gt;\nhttp://m.primetimeshow.in/share-725F_54257D1C.html&lt;/a&gt;\n &lt;a href=&quot;\nhttp://m.primetimeshow.in/share-FB47_54257D1C.html&quot; rel=&quot;nofollow&quot; target=&quot;_NEW&quot;&gt;\nhttp://m.primetimeshow.in/share-FB47_54257D1C.html&lt;/a&gt;\n\nGeneral\nComplete name : Desi Kattey (2014) - 1CD - DVDSCR-Rip - Hindi - XviD - MP3 - Mafiaking - TeamTNT ExClusive.avi\nFormat : AVI\nFormat/Info : Audio Video Interleave\nFile size : 699 MiB\nDuration : 2h 17mn\nOverall bit rate : 711 Kbps\n\n\nVideo\nID : 0\nFormat : MPEG-4 Visual\nFormat profile : Advanced Simple@L5\nFormat settings, BVOP : 2\nFormat settings, QPel : No\nFormat settings, GMC : No warppoints\nFormat settings, Matrix : Default (H.263)\nCodec ID : XVID\nCodec ID/Hint : XviD\nDuration : 2h 17mn\nBit rate : 639 Kbps\nWidth : 640 pixels\nHeight : 272 pixels\nDisplay aspect ratio : 2.35:1\nFrame rate : 29.970 fps\nColor space : YUV\nChroma subsampling : 4:2:0\nBit depth : 8 bits\nScan type : Progressive\nCompression mode : Lossy\nBits/(Pixel*Frame) : 0.123\nStream size : 629 MiB (90%)\nWriting library : XviD 1.2.1 (UTC 2008-12-04)\n\n\nAudio\nID : 1\nFormat : MPEG Audio\nFormat version : Version 2\nFormat profile : Layer 3\nMode : Joint stereo\nMode extension : MS Stereo\nCodec ID : 55\nCodec ID/Hint : MP3\nDuration : 2h 17mn\nBit rate mode : Constant\nBit rate : 64.0 Kbps\nChannel(s) : 2 channels\nSampling rate : 24.0 KHz\nCompression mode : Lossy\nStream size : 63.0 MiB (9%)\nAlignment : Aligned on interleaves\nInterleave, duration : 133 ms (4.00 video frames)\nInterleave, preload duration : 216 ms\nTitle : Mafiaking\nWriting library : LAME3.99r\n\nSAMPLE WITH IN TORRENT\n\nThanks to Mafiaking - TeamTNT!!\n\nSeed n ENjoy!!","torrent":{"xt":"urn:btih:35ebb0c1ffb0bc65889c8e1fb41d6fb3b702ecc7","amp;dn":"Desi+Kattey+%282014%29+-+1CD+-+DVDSCR-Rip+-+Hindi+-+XviD+-+MP3+-+Maf","amp;tr":["udp%3A%2F%2Ftracker.openbittorrent.com%3A80","udp%3A%2F%2Fopen.demonii.com%3A1337","udp%3A%2F%2Ftracker.coppersurfer.tk%3A6969","udp%3A%2F%2Fexodus.desync.com%3A6969"],"infoHash":"35ebb0c1ffb0bc65889c8e1fb41d6fb3b702ecc7","infoHashBuffer":{"type":"Buffer","data":[53,235,176,193,255,176,188,101,136,156,142,31,180,29,111,179,183,2,236,199]},"announce":[],"urlList":[]}}